# xmcd
#
# Track frame offsets:
#	150
#	12742
#	27297
#	39562
#	56630
#	67192
#	79590
#	97072
#	108537
#	124635
#	140060
#	152952
#	166197
#	182042
#	194487
#	210887
#	222442
#	246867
#	259287
#	274220
#
# Disc length: 3901
#
# Revision: 1
# Processed by: cddbd v1.5.1PL0 Copyright (c) Steve Scherf et al.
# Submitted via: VisiTrax 2.9.2.167 - For more info visit www.synapsa.com
# Normalized: r0:DSETVAR1
#
DISCID=320f3b14
DTITLE=Various Artist - Music of the Century - Best of Country, vol.2
DYEAR=1900
DGENRE=
TTITLE0=The Bellamy Brothers - Let Your Love Flow
TTITLE1=Aslepp On The Wheel - The Letter That Johnny Walker Read
TTITLE2=Glen Campbell and Rita Coolidge - Something 'Bout You Baby I Like
TTITLE3=Melba Montgomery - Angel Of The Morning
TTITLE4=Mel McDaniel - Louisiana Saturday Night
TTITLE5=Sawyer Brown - Step That Step
TTITLE6=Marie Osmond and Dan Seal - Meet Me In Montana
TTITLE7=Crystal Gayle - Don't Make My Brown Eyes Blue
TTITLE8=Billie Jo Spears - Blanket On The Ground
TTITLE9=Billy 'Crash' Craddock - If I Could Write A Song As Beautiful As You
TTITLE10=Bobbie Gentry - I'll Never Fall In Love Again
TTITLE11=Merle Haggard - Cherokee Malden
TTITLE12=Juicy Newton - Lay Back In The Arms Of Someone
TTITLE13=Charlie Rich - Puttin' In Overtime At Home
TTITLE14=Dan Seal - Bob
TTITLE15=Paul Anka and Odia Coates - Having My Baby
TTITLE16=Smokie - If You Think You Now How To Love Me
TTITLE17=Lee Greenwood - Hopelessly Yours
TTITLE18=Ed Bruce - Mammas Don't Let Your Babies Up To Be Cowboys
TTITLE19=Juicy Newton - The sweetest Thing (I Ever Known(
EXTD=
EXTT0=
EXTT1=
EXTT2=
EXTT3=
EXTT4=
EXTT5=
EXTT6=
EXTT7=
EXTT8=
EXTT9=
EXTT10=
EXTT11=
EXTT12=
EXTT13=
EXTT14=
EXTT15=
EXTT16=
EXTT17=
EXTT18=
EXTT19=
PLAYORDER=
